<svg width="3730" height="3730" viewBox="0 0 3730 3730" xmlns="http://www.w3.org/2000/svg"><g fill="none" opacity=".968"><path d="M1 1865C1 870.867 870.867 1 1865 1s1864 869.867 1864 1864-869.867 1864-1864 1864S1 2859.133 1 1865z" stroke="#000"/><path d="M2577 1925c0-5 7-10 15-10s15 5 15 10c0 6-7 10-15 10s-15-4-15-10zm-1740-45c0-8 7-15 15-15s15 7 15 15-7 15-15 15-15-7-15-15zm320-1055c0-5 5-10 10-10 6 0 10 5 10 10 0 6-4 10-10 10-5 0-10-4-10-10z" fill="#FADBAE"/><path d="M904 1890c0-5 7-10 15-10s15 5 15 10c0 6-7 10-15 10s-15-4-15-10zm10-50c0-5 7-10 15-10s15 5 15 10c0 6-7 10-15 10s-15-4-15-10zm10-140c0-5 7-10 15-10s15 5 15 10c0 6-7 10-15 10s-15-4-15-10z" fill="#FBD092"/><path d="M2644 2070c0-5 7-10 15-10s15 5 15 10c0 6-7 10-15 10s-15-4-15-10zM904 1910c0-5 5-10 10-10 6 0 10 5 10 10 0 6-4 10-10 10-5 0-10-4-10-10zm1750 0c0-5 5-10 10-10 6 0 10 5 10 10 0 6-4 10-10 10-5 0-10-4-10-10zm-40-229c0-5 5-13 10-16 6-3 10-2 10 4 0 5-4 13-10 16-5 3-10 2-10-4zm50-231c0-5 5-10 10-10 6 0 10 5 10 10 0 6-4 10-10 10-5 0-10-4-10-10zm-1480-410c0-5 5-10 10-10 6 0 10 5 10 10 0 6-4 10-10 10-5 0-10-4-10-10z" fill="#FBC678"/><path d="M2594 1710c0-5 7-10 15-10s15 5 15 10c0 6-7 10-15 10s-15-4-15-10zm-1670-45c0-8 7-15 15-15s15 7 15 15-7 15-15 15-15-7-15-15zm1730-180c0-16 6-25 15-25s15 9 15 25-6 25-15 25-15-9-15-25z" fill="#F9BE68"/><path d="M1409 2238c-3-7-4-180-3-383l3-370h760v760l-378 3c-297 2-379 0-382-10zm645-373v-265h-530v530h530v-265z" fill="#F60"/><g fill="#FCB44C"><path d="M1528 2920c-29-11-70-63-84-104-8-26-20-37-55-50-53-21-120-90-135-143-6-21-10-56-8-78 3-39 2-41-52-73-59-34-127-103-156-158-15-27-23-32-41-28-18 5-25 0-38-32-8-21-12-41-7-46s89-7 188-6l179 3 3 62 3 62 67 3 67 3 3 58 3 57h68l3-57 3-58h110l3 58 3 57h81l-4-57-3-58h110l5 55 5 55 37 3 37 3 3-58 3-58h110l3 58 3 57h68l3-57 3-58 67-3 67-3 3-62 3-62 179-3c99-1 184 2 188 6 6 6 3 25-6 47-13 31-20 36-38 32-19-5-28 2-53 45-33 56-101 120-156 149-35 18-36 20-41 87-7 95-45 150-129 189-49 23-61 33-66 57-3 16-25 48-48 72-39 41-45 44-96 44-36 0-65-7-87-20-53-32-69-69-77-181l-7-99h-32c-33 0-33 1-40 53-3 28-6 72-6 97 0 86-65 150-150 149-25 0-54-4-66-9zm1849-250c0-30 2-43 4-27 2 15 2 39 0 55-2 15-4 2-4-28zM918 2106c-3-7-4-33-2-57l3-44h400v110l-198 3c-162 2-198 0-203-12zm1340 0c-3-7-4-33-2-57l3-44h410l-4 50c-1 28-5 53-8 58-2 4-92 7-199 7-157 0-196-3-200-14zM917 1878c4-28 10-55 15-60s94-7 198-6l189 3v110l-204 3-204 2 6-52zm1341 38c-3-7-4-33-2-57l3-44 189-3c104-1 193 1 197 5 4 5 11 32 15 61l7 52h-202c-163 0-203-3-207-14zM940 1718c-3-7-7-32-10-55-5-35-3-43 14-48 16-5 18-12 12-38-4-18-7-68-6-113 0-90 24-154 84-226 57-69 60-62 60 167v204l113 3 112 3v110l-188 3c-145 2-188 0-191-10zm1318-2c-3-7-4-33-2-57l3-44 198-3c133-2 197 1 197 8 0 6-11 33-25 60l-25 50h-170c-136 0-172-3-176-14z"/><path d="M1181 1534c-13-13-8-477 6-495 7-9 27-33 46-54 29-33 36-37 52-26 15 9 25 8 49-4 16-8 45-15 64-15 30 0 36-4 45-33 15-43 68-95 112-107 49-14 92-3 138 36 48 42 61 80 61 187v77h70v-78c0-98 11-137 52-179 40-42 94-58 146-44 44 12 97 63 113 109 9 28 16 32 45 32 69 0 139 62 151 133 4 30 11 36 46 48 59 20 148 89 185 144 26 40 52 98 68 153 2 6 13 12 24 12 18 0 20 6 20 55v55l-207-2-208-3-3-67-3-67-67-3-67-3-3-52c-3-53-3-53-37-53s-34 0-37 53l-3 52h-110l-3-52-3-53h-78l2 53 2 52-57 3-58 3v-111h-79l-3 53-3 52h-110l-3-52c-3-53-3-53-37-53s-34 0-37 53l-3 52-67 3-67 3-3 67-3 67-65 3c-36 2-69 0-73-4z"/></g><g fill="#000"><path d="M2478 3211c-48-22-80-59-95-111-19-62-4-108 52-162l48-48 3-137 3-138 178-3 177-2v-390h-569l-3 63-3 62-67 3-67 3-3 57-3 57h-100l-3-57-3-58h-78l-3 58-3 57-45 3c-54 4-70-13-70-75v-43h-77l5 48c5 59-9 74-70 70l-43-3-3-57-3-58h-78l-3 58-3 57h-100l-3-57-3-57-67-3-67-3-3-62-3-63H674v320l49 47c57 56 71 100 51 166-25 85-122 142-201 118-74-22-129-93-129-167 0-46 38-112 79-139l31-20 2-220 3-220 373-3 372-2v-80H912l-393 1-20 32c-11 17-36 42-55 55-29 20-44 23-92 20-104-7-155-72-146-185 6-66 29-101 91-131 71-36 117-25 185 44l52 54h770v-80l-337-2-338-3-3-162-2-163h-54c-46 0-54 3-64 24-19 43-78 79-135 83-45 4-59 0-99-26-50-32-68-69-68-141 0-103 51-161 148-168 48-3 63 0 92 20 19 13 44 38 55 55l20 32 105 3 105 3 3 163 2 162h570v-79l-112-3-113-3-5-205-5-205-42 63c-26 40-46 85-54 120-11 53-8 148 7 199 5 18-1 24-42 43-45 19-50 20-61 5-6-9-17-49-24-88-26-155 28-304 151-421l70-66V917c0-154 0-154-25-165-13-6-38-30-55-53-114-158 101-354 247-226 64 56 80 134 43 207-11 22-36 50-55 63l-35 22v755h109l3-67 3-68 67-3 67-3 3-52 3-52h100l3 53 3 52h78l3-52 3-53h110l3 53 3 52h80l-3-52-3-53h110l3 53 3 52h78l3-52 3-53h100l3 52 3 52 67 3 67 3 3 68 3 67h157c86 0 214-3 285-7l127-6V855l-36-29c-53-42-74-83-74-142 0-92 76-167 171-168 83 0 157 66 166 149 7 61-12 109-60 150l-42 36-5 387-5 387-342 3-343 2v80h880v-57c0-55-2-59-34-80-38-24-76-94-76-139 1-41 33-107 65-132 74-58 157-53 223 14l44 44-3 79c-4 72-7 83-33 110-16 17-38 33-47 36-16 5-19 21-21 123l-3 117-497 3-498 2v80l498 2 497 3 3 295 2 295 35 22c52 34 68 73 63 156-4 66-6 71-45 107-71 67-158 63-231-9-41-41-56-97-42-151 12-44 60-106 91-115 18-6 19-18 19-251v-244h-890v80l343 2 342 3 3 299c2 212-1 303-9 312-9 11-49 14-180 14h-169v165l36 29c111 88 96 228-31 287-50 23-79 23-131 0zm104-113c7-7 12-27 12-45 0-27-5-35-26-44-37-13-74 11-74 49 0 35 16 52 50 52 14 0 31-5 38-12zM654 2741c30-57-10-108-65-83-20 9-25 19-25 46 0 23 6 39 18 45 27 16 60 13 72-8zm2605-41c38-42-14-102-66-76-27 13-35 45-19 75 14 27 61 28 85 1zm-1105-835v-365h-730v730h730v-365zM392 2004c55-39-7-123-65-86-24 15-26 59-4 81 25 25 39 26 69 5zm16-536c7-11 7-26 0-45-8-23-16-29-47-31-31-3-39 1-49 22-8 20-8 32 0 52 10 21 18 25 49 22 20-2 41-10 47-20zm2846 2c24-24 25-47 3-72-33-36-93-13-93 37 0 24 33 55 57 55 7 0 22-9 33-20zm-309-754c25-54-13-96-67-76-19 8-24 17-24 44 0 38 18 55 58 56 14 0 26-9 33-24zm-1783-72c34-23 27-75-11-88-38-14-61 2-65 45-3 23 2 37 14 46 23 17 35 16 62-3z"/><path d="M1509 2138c-3-8-4-135-3-283l3-270h560v560l-278 3c-218 2-279 0-282-10zm445-273v-165h-330v330h330v-165zm-408 1164c-70-13-153-78-183-143-6-11-33-34-61-51-86-51-158-165-158-250 0-13-18-34-50-58-54-40-120-119-151-178-24-48-24-46 9-62 65-34 66-33 117 43 46 69 101 117 169 145 33 14 33 15 28 65-9 96 40 174 133 209 43 16 50 23 67 68 25 67 47 85 112 91 63 5 109-15 129-56 8-15 17-72 21-127s10-103 15-108 28-7 52-5l44 3 10 110c6 61 16 120 23 132 18 33 64 53 123 53 46 0 55-4 84-34 18-19 36-51 39-71 4-21 14-38 24-42 9-3 40-16 67-29 71-34 97-78 103-175 4-75 5-76 37-88 56-20 121-78 164-146 45-71 48-72 114-38 32 16 32 14 8 62-31 59-97 138-151 178-32 24-50 45-50 58 0 85-72 199-158 250-28 17-58 44-68 63-23 43-86 100-132 119s-138 19-183 0c-20-8-51-28-71-45l-35-31-23 24c-49 52-139 78-218 64zm1059-1625c-29-115-100-204-199-249-85-39-86-39-94-79-16-75-52-107-132-116-47-5-50-7-63-45-18-52-48-83-95-95-52-15-110 2-142 41-31 36-27 20-35 149l-6 105h-100l-6-105c-6-113-14-138-56-168-39-27-78-34-122-22-46 12-76 43-94 95-13 38-16 40-63 45-27 3-60 12-73 19-21 12-26 10-57-20-19-18-34-38-34-45 0-15 54-50 92-59 14-4 45-29 68-56 55-66 122-99 197-99 64 0 144 31 177 69l19 21 26-24c104-99 272-84 370 32 26 31 54 53 72 57 47 11 114 69 144 128 23 43 38 59 81 81 114 60 227 216 241 335l6 51h-111l-11-46z"/></g></g></svg>